# xmcd CD database file
#
# Track frame offsets:
#	150
#	18068
#	36314
#	51638
#	69667
#	86371
#	101136
#	116610
#	135378
#	151764
#	167247
#	185214
#
# Disc length: 2720 seconds
#
# Revision: 1
# Processed by: cddbd v1.5.2PL0 Copyright (c) Steve Scherf et al.
# Submitted via: CDex 1.51
#
DISCID=a10a9e0c
DTITLE=Justin Thomas - Justin Thomas
DYEAR=2007
DGENRE=Country
TTITLE0=Once In A Lifetime
TTITLE1=Not So Long Ago
TTITLE2=Don't Mistake My Love
TTITLE3=What Can I Say
TTITLE4=Give Me A Chance
TTITLE5=Prove It To You
TTITLE6=All I Need (Is Your Love)
TTITLE7=Hope
TTITLE8=Better Days
TTITLE9=Valentine's Day Blues
TTITLE10=Something Special
TTITLE11=Tearing Me Apart
EXTD=YEAR: 2007
EXTT0=
EXTT1=
EXTT2=
EXTT3=
EXTT4=
EXTT5=
EXTT6=
EXTT7=
EXTT8=
EXTT9=
EXTT10=
EXTT11=
PLAYORDER=
